<svg height='100px' width='100px'  fill="#e63946" xmlns="http://www.w3.org/2000/svg" xmlns:xlink="http://www.w3.org/1999/xlink" version="1.1" x="0px" y="0px" viewBox="0 0 100 100" enable-background="new 0 0 100 100" xml:space="preserve"><path d="M75.038,27.877C42.162,20.382,25.13,34.86,25.13,34.86c-1.193-1.193-3.747-4.599-3.747-4.599  c-2.555,2.895-0.511,5.621-1.533,5.11c-1.022-0.511-3.918-2.725-3.918-2.725c-3.237,6.474,2.555,8.006,2.555,8.006  C7.415,50.871,7.416,64.498,7.416,64.498c2.384,3.577,5.281-1.362,5.281-1.362c1.875-3.917,5.791-3.577,5.791-3.577  c6.472,1.533,10.05-2.726,10.05-2.726l3.917,1.363l-1.192,15.841c-3.72,1.549-2.385,3.236-2.385,3.236h3.748l5.621-11.412  l6.302,10.562c-2.214,0-2.896,2.384-2.896,2.384h6.132l1.192-15.671c5.615,1.123,10.414,1.349,14.351,1.158l3.638,10.49  c0,0-7.821,3.13,0,4.022h4.246l2.837-16.382c1.095-0.372,1.671-0.651,1.671-0.651l5.279,14.139  c-3.577,1.193-2.724,2.895-2.724,2.895h5.96c5.961-11.584,8.348-25.55,8.348-25.55C92.583,31.794,75.038,27.877,75.038,27.877z   M21.042,50.532c-0.847,0-1.533-0.687-1.533-1.534c0-0.846,0.686-1.532,1.533-1.532c0.846,0,1.533,0.687,1.533,1.532  C22.575,49.846,21.889,50.532,21.042,50.532z M64.648,29.41c0,0,19.926,2.044,24.697,19.418  C89.346,48.828,84.577,36.393,64.648,29.41z"></path></svg>